Coordinates
version=1
nRows=24
nColumns=24
inDegrees=yes

Units are S.I. units (second, meters, Newtons, ...)
Angles are in degrees.

endheader
time	pelvis_tilt	pelvis_list	pelvis_rotation	pelvis_tx	pelvis_ty	pelvis_tz	hip_flexion_r	hip_adduction_r	hip_rotation_r	knee_angle_r	ankle_angle_r	subtalar_angle_r	mtp_angle_r	hip_flexion_l	hip_adduction_l	hip_rotation_l	knee_angle_l	ankle_angle_l	subtalar_angle_l	mtp_angle_l	lumbar_extension	lumbar_bending	lumbar_rotation
      4.61500000	    -14.49227409	     11.05498146	     -6.89907576	      2.87692454	     -0.01917438	     -0.43335082	     20.55903923	    -16.65016793	     -3.61690782	    -57.79083711	    -24.87149213	      8.42604299	     40.93313208	     27.03002954	     10.15199275	    -14.92327296	    -12.23024970	     -8.90696279	      4.46430878	      8.60302714	     15.24549144	    -14.00829544	      6.30661594
      4.62000000	    -14.39439243	     10.94394452	     -6.75772797	      2.88290780	     -0.01820690	     -0.43408387	     21.16714962	    -16.56651328	     -3.51214398	    -58.61030857	    -24.28377087	      8.49520279	     41.12974246	     26.34052280	     10.27077587	    -14.73203932	    -11.86856865	     -8.69009834	      4.66671363	      8.75260278	     15.09443649	    -13.92220195	      5.97066436
      4.62500000	    -14.21757809	     10.78927113	     -6.64046781	      2.88891718	     -0.01708955	     -0.43479004	     21.65522904	    -16.42642782	     -3.38580196	    -59.31176218	    -23.73277688	      8.72871026	     41.49368448	     25.54451569	     10.34796220	    -14.56060157	    -11.47513558	     -8.50855684	      4.88737040	      8.95128166	     14.86036759	    -13.79214780	      5.60375595
      4.63000000	    -14.11989534	     10.62699054	     -6.47989148	      2.89486572	     -0.01610342	     -0.43555427	     22.22319464	    -16.28475880	     -3.30751119	    -59.97871295	    -23.17535277	      9.07332347	     41.85902991	     24.85177929	     10.41556630	    -14.30941534	    -11.12380469	     -8.30554337	      5.08174718	      9.07211301	     14.70119507	    -13.65328749	      5.23853036
      4.63500000	    -13.99307478	     10.43821080	     -6.32619049	      2.90083466	     -0.01507027	     -0.43631887	     22.73200031	    -16.11004882	     -3.23203376	    -60.55391876	    -22.62320398	      9.51681445	     42.33804687	     24.11714948	     10.45957884	    -14.03570334	    -10.76194319	     -8.11177650	      5.22960314	      9.15832614	     14.51522794	    -13.48354222	      4.86091372
      4.64000000	    -13.76072587	     10.24688874	     -6.17520460	      2.90682211	     -0.01393555	     -0.43711234	     23.09413023	    -15.95678889	     -3.20796668	    -61.01500026	    -22.11116917	      9.85852622	     43.31849893	     23.25129704	     10.52893047	    -13.66679987	    -10.37054223	     -7.94616305	      5.22854725	      9.14742442	     14.21628449	    -13.31933049	      4.49237030
      4.64500000	    -13.67436853	     10.03590322	     -5.99727107	      2.91279056	     -0.01298068	     -0.43790576	     23.60617514	    -15.75197716	     -3.17188123	    -61.44849110	    -21.53269664	     10.37840945	     44.01902086	     22.56317672	     10.54770455	    -13.34901242	    -10.02428950	     -7.75811276	      5.29047155	      9.12940922	     14.08087420	    -13.11951677	      4.09879843
      4.65000000	    -13.59634343	      9.78705050	     -5.85434410	      2.91867779	     -0.01203175	     -0.43860790	     24.13157086	    -15.47054992	     -3.09927686	    -61.83271894	    -20.97289135	     10.96624443	     44.51925820	     21.88815378	     10.49997792	    -12.99146738	     -9.68852333	     -7.55844136	      5.34850389	      9.12608714	     13.95208026	    -12.87364402	      3.76034376
      4.65500000	    -13.40147330	      9.55089882	     -5.68036757	      2.92466506	     -0.01098514	     -0.43943103	     24.47415274	    -15.25463234	     -3.12434459	    -62.09007150	    -20.42348154	     11.37346452	     45.62134702	     21.05412982	     10.51957023	    -12.47224193	     -9.30686116	     -7.38596533	      5.16012362	      8.87001874	     13.70359248	    -12.65094681	      3.40363333
      4.66000000	    -13.30302082	      9.33403274	     -5.49813762	      2.93051862	     -0.01013083	     -0.44018628	     24.94901272	    -15.03024924	     -3.11538810	    -62.36225956	    -19.80557420	     11.92116094	     46.29787857	     20.36743740	     10.51563083	    -12.08260555	     -8.98240401	     -7.19339986	      5.15488284	      8.77474199	     13.55056832	    -12.44726923	      3.04469747
      4.66500000	    -13.19612705	      9.08610639	     -5.32946124	      2.93641009	     -0.00925709	     -0.44092127	     25.38827282	    -14.76083430	     -3.11759864	    -62.55894283	    -19.19442262	     12.43028242	     46.89284029	     19.65508397	     10.47413598	    -11.67202401	     -8.63573372	     -7.01606445	      5.09232231	      8.64628109	     13.40152097	    -12.20458694	      2.70163577
      4.67000000	    -13.14210571	      8.82838917	     -5.17543653	      2.94224380	     -0.00847331	     -0.44160629	     25.88969739	    -14.44878276	     -3.08862896	    -62.72264943	    -18.57884741	     12.94632814	     47.25433714	     19.01595334	     10.39426247	    -11.35774291	     -8.30588977	     -6.83716965	      5.10663057	      8.60686810	     13.30914066	    -11.93962928	      2.37202734
      4.67500000	    -12.97524044	      8.59037545	     -4.98247911	      2.94811453	     -0.00762539	     -0.44237274	     26.23126820	    -14.21416821	     -3.16102756	    -62.81212714	    -17.95634697	     13.31981138	     47.80596251	     18.22894663	     10.37186413	    -10.87409689	     -7.94003582	     -6.67879184	      4.97059135	      8.40461378	     13.09410465	    -11.71801972	      2.02765013
      4.68000000	    -12.94736068	      8.33598961	     -4.84058642	      2.95389539	     -0.00697788	     -0.44301763	     26.75474393	    -13.89352305	     -3.15292507	    -62.89375213	    -17.33700718	     13.68541954	     48.04009777	     17.62806348	     10.27071943	    -10.60336951	     -7.61778886	     -6.48195661	      5.01216748	      8.40032947	     13.03892006	    -11.44906400	      1.76476957
      4.68500000	    -12.79666474	      8.09303367	     -4.62879662	      2.95969352	     -0.00620022	     -0.44378732	     27.09369256	    -13.64793747	     -3.24060159	    -62.89103172	    -16.73396273	     14.00266856	     48.33193206	     16.86671883	     10.22533713	    -10.20191776	     -7.25035683	     -6.35104732	      4.97438777	      8.27466141	     12.83388059	    -11.22360107	      1.36019667
      4.69000000	    -12.70210186	      7.84197780	     -4.45218965	      2.96549269	     -0.00552715	     -0.44448482	     27.50068543	    -13.36275283	     -3.30694473	    -62.85386523	    -16.15416045	     14.21862864	     48.49340429	     16.16656462	     10.13953394	     -9.84572340	     -6.88045550	     -6.19589335	      4.98737420	      8.19983609	     12.70741761	    -10.97075405	      1.06766449
      4.69500000	    -12.65746993	      7.58940914	     -4.29056497	      2.97123468	     -0.00494716	     -0.44515269	     27.96804212	    -13.05352225	     -3.34773739	    -62.78075355	    -15.59398413	     14.39547483	     48.55307454	     15.53647729	     10.03015979	     -9.56707090	     -6.52523005	     -6.04128577	      5.05070088	      8.18952671	     12.63576667	    -10.70610471	      0.78421917
      4.70000000	    -12.52050983	      7.34575252	     -4.08505008	      2.97695302	     -0.00432089	     -0.44588542	     28.30586826	    -12.79823367	     -3.47372068	    -62.66364514	    -15.00190052	     14.46565033	     48.46683853	     14.80238710	      9.95076812	     -9.23370087	     -6.16227647	     -5.90133552	      5.08587291	      8.15241930	     12.45076340	    -10.47208296	      0.43871620
      4.70500000	    -12.42565502	      7.10037447	     -3.89818101	      2.98267778	     -0.00376663	     -0.44658725	     28.68813838	    -12.52326864	     -3.58114214	    -62.50453317	    -14.43810958	     14.50901202	     48.24815124	     14.11308335	      9.84961183	     -8.92606358	     -5.79292815	     -5.76304703	      5.14864396	      8.13561564	     12.32482645	    -10.22216031	      0.15593592
      4.71000000	    -12.32027803	      6.86496714	     -3.73346775	      2.98833816	     -0.00325578	     -0.44725303	     29.06615401	    -12.24096430	     -3.65795095	    -62.31923969	    -13.86542513	     14.54461393	     47.79086205	     13.42334049	      9.74639686	     -8.64324125	     -5.43109555	     -5.62445666	      5.19931976	      8.12136158	     12.18548549	     -9.97789343	     -0.11842736
      4.71500000	    -12.26937528	      6.62331644	     -3.51451594	      2.99399058	     -0.00283555	     -0.44799059	     29.47665438	    -11.98393347	     -3.81752690	    -62.07713456	    -13.31871584	     14.43684408	     47.48851159	     12.81108246	      9.63695028	     -8.37605576	     -5.10286196	     -5.47717025	      5.31250030	      8.14067259	     12.10077488	     -9.73308257	     -0.42757587
      4.72000000	    -12.18627918	      6.38454765	     -3.32077157	      2.99960882	     -0.00242161	     -0.44868890	     29.84996601	    -11.71608794	     -3.95271121	    -61.79283685	    -12.77676728	     14.32140239	     47.03323857	     12.16572345	      9.52023481	     -8.10060238	     -4.77203256	     -5.32730394	      5.39891472	      8.13727208	     11.98358449	     -9.48672539	     -0.70850556
      4.72500000	    -12.12559383	      6.15172932	     -3.12803988	      3.00515233	     -0.00208143	     -0.44936770	     30.24803713	    -11.44731647	     -4.08510188	    -61.47064411	    -12.24702683	     14.14389744	     46.55296439	     11.56884174	      9.39988414	     -7.84699807	     -4.47501363	     -5.16365053	      5.47760713	      8.12385010	     11.88482474	     -9.24551701	     -1.01098712
      4.73000000	    -12.06686444	      5.92217095	     -2.93468072	      3.01069997	     -0.00178660	     -0.45005572	     30.63512137	    -11.18637060	     -4.22779246	    -61.10137563	    -11.72906700	     13.94470616	     46.01394594	     10.98052085	      9.27734155	     -7.58264960	     -4.19029622	     -4.98858085	      5.55584031	      8.08987216	     11.79384970	     -9.00282699	     -1.28370515
